<svg width="784" height="50" viewBox="0 0 784 50" fill="none" xmlns="http://www.w3.org/2000/svg">
<g clip-path="url(#clip0_1067_6344)">
<path d="M793 -133H-522V616H793V-133Z" fill="url(#paint0_radial_1067_6344)"/>
<g clip-path="url(#clip1_1067_6344)">
<path d="M245.814 524.631C124.884 524.631 14.1541 514.255 -83.3612 493.811C-170.677 475.497 -248.148 448.978 -313.602 415.01C-461.316 338.337 -510.229 244.458 -526.237 195.279C-548.499 126.987 -535.594 62.9527 -493.378 32.1771C-474.753 18.6074 -445.219 12 -403.091 12C-344.2 12 -265.931 24.5053 -175.333 39.0062C-48.6389 59.272 94.9512 82.1985 245.415 82.1985C395.834 82.1985 539.291 59.2721 665.852 39.0506C756.361 24.5941 834.542 12.0887 893.388 12.0887C935.56 12.0887 965.138 18.6961 983.764 32.3101C1026.16 63.1744 1039.11 127.386 1016.8 195.856C1000.79 244.946 951.968 338.736 804.52 415.232C739.199 449.111 661.817 475.585 574.59 493.856C477.207 514.299 366.566 524.631 245.814 524.631ZM-403.135 14.439C-444.731 14.439 -473.821 20.8691 -492.003 34.1726C-533.377 64.3274 -545.927 127.298 -523.976 194.569C-472.358 352.971 -243.049 522.237 245.814 522.237C734.055 522.237 963.054 353.281 1014.54 195.19C1036.53 127.697 1023.9 64.5491 982.344 34.3056C964.119 21.0021 935.028 14.572 893.388 14.572C834.719 14.572 756.627 27.033 666.207 41.4896C539.557 61.7111 396.011 84.6375 245.37 84.6375C94.6851 84.6375 -48.9936 61.6667 -175.777 41.4009C-266.241 26.9443 -344.422 14.439 -403.135 14.439Z" fill="url(#paint1_radial_1067_6344)"/>
<path d="M181.951 526.159C59.6909 526.159 -51.9706 515.383 -149.929 494.186C-237.6 475.206 -315.16 447.668 -380.436 412.369C-488.905 353.7 -563.981 272.46 -591.786 183.636C-603.581 146.031 -606.109 109.047 -599.191 76.6307C-592.628 46.0325 -577.684 21.2878 -557.063 7.00863C-541.587 -3.76727 -518.572 -9 -486.732 -9C-431.566 -9 -354.494 6.69825 -265.271 24.8355C-138.222 50.6888 19.9131 82.8391 181.552 82.8391C343.146 82.8391 501.104 50.7331 628.02 24.9241C717.154 6.78692 794.137 -8.86694 849.258 -8.86694C881.098 -8.86694 904.158 -3.63421 919.634 7.14169C940.299 21.5096 955.332 46.2986 961.94 76.9855C968.946 109.491 966.374 146.608 954.578 184.301C926.774 273.036 851.83 354.099 743.584 412.635C678.396 447.845 600.969 475.339 513.432 494.275C415.562 515.427 304.078 526.159 181.951 526.159ZM-486.776 -6.7384C-518.128 -6.7384 -540.7 -1.63871 -555.777 8.82678C-575.91 22.7955 -590.5 47.0524 -596.93 77.0298C-603.803 109.047 -601.231 145.632 -589.568 182.838C-561.897 271.085 -487.264 351.837 -379.327 410.24C-240.039 485.583 -51.1724 523.764 181.951 523.764C414.808 523.764 603.408 485.672 742.431 410.551C850.19 352.325 924.734 271.706 952.317 183.592C964.024 146.297 966.552 109.579 959.634 77.429C953.159 47.3185 938.481 23.0173 918.26 8.95984C903.138 -1.54999 880.566 -6.64968 849.214 -6.64968C794.315 -6.64968 717.464 8.95985 628.419 27.0971C501.414 52.906 343.323 85.0563 181.507 85.0563C19.647 85.0563 -138.621 52.8616 -265.759 27.0083C-354.893 8.91547 -431.832 -6.7384 -486.776 -6.7384Z" fill="url(#paint2_radial_1067_6344)"/>
<path d="M63.4442 546.531C-172.561 546.531 -362.891 506.931 -502.18 428.75C-559.829 396.423 -607.677 357.842 -644.351 314.118C-676.59 275.715 -699.472 234.385 -712.421 191.281C-724.793 150.129 -727.276 109.553 -719.605 73.988C-712.421 40.6847 -696.767 14.6097 -675.481 0.596609C-662.532 -7.96203 -644.262 -12.1305 -619.695 -12.1305C-568.077 -12.1305 -492.69 6.62756 -405.374 28.3567C-273.003 61.3053 -108.305 102.28 62.9564 102.28C234.174 102.28 398.695 61.3497 530.888 28.4455C618.071 6.76062 693.369 -11.9531 744.942 -11.9531C769.51 -11.9531 787.78 -7.78465 800.773 0.818336C822.147 14.9201 837.89 41.0838 845.118 74.4758C852.834 110.218 850.395 150.883 838.023 192.168C825.119 235.227 802.236 276.469 770.086 314.783C733.457 358.419 685.741 396.91 628.181 429.149C489.115 507.02 299.139 546.531 63.4442 546.531ZM-619.695 -9.9132C-643.819 -9.9132 -661.645 -5.87777 -674.239 2.45914C-712.642 27.7803 -737.343 100.595 -710.292 190.66C-685.37 273.63 -555.971 544.314 63.4442 544.314C681.883 544.314 811.017 274.251 835.895 191.503C863.034 101.172 838.156 28.0907 799.576 2.63648C786.937 -5.70043 769.11 -9.73581 744.987 -9.73581C693.679 -9.73581 618.514 8.9779 531.464 30.6184C399.138 63.5226 234.484 104.498 63.0007 104.498C-108.527 104.498 -273.402 63.4782 -405.862 30.5297C-493.089 8.80049 -568.343 -9.9132 -619.695 -9.9132Z" fill="url(#paint3_radial_1067_6344)"/>
<path d="M63.4885 543.427C-175.133 543.427 -366.616 502.541 -505.727 421.877C-563.288 388.485 -610.959 348.574 -647.411 303.297C-679.339 263.608 -702.044 220.727 -714.904 175.849C-743.374 76.4714 -715.702 -4.01525 -675.215 -29.2921C-664.306 -36.1212 -649.628 -39.4471 -630.426 -39.4471C-582.09 -39.4471 -512.113 -18.7379 -423.511 7.47015C-286.839 47.8687 -116.731 98.2006 62.9564 98.2006C242.599 98.2006 412.486 47.9574 548.98 7.60321C637.449 -18.5605 707.338 -39.2254 755.63 -39.2254C774.875 -39.2254 789.554 -35.8995 800.507 -29.0703C841.216 -3.6605 869.065 77.1366 840.506 176.825C827.646 221.658 804.986 264.451 773.146 304.051C736.783 349.239 689.2 389.061 631.729 422.32C492.928 502.674 301.756 543.427 63.4885 543.427ZM-630.426 -37.2742C-649.229 -37.2742 -663.508 -34.0814 -674.106 -27.4739C-713.928 -2.59622 -741.023 76.8705 -712.864 175.228C-685.37 271.192 -611.402 358.108 -504.663 420.014C-365.907 500.457 -174.779 541.254 63.4442 541.254C301.312 541.254 492.13 500.59 630.576 420.413C767.159 341.301 818.955 243.919 838.378 176.16C866.626 77.4914 839.353 -2.33014 799.31 -27.2965C788.711 -33.904 774.432 -37.1412 755.585 -37.1412C707.604 -37.1412 637.849 -16.5206 549.513 9.59875C412.885 49.9973 242.821 100.285 62.8677 100.285C-117.13 100.285 -287.371 49.9529 -424.221 9.46569C-512.557 -16.6537 -582.4 -37.2742 -630.426 -37.2742Z" fill="url(#paint4_radial_1067_6344)"/>
<path d="M63.5769 540.279C-177.794 540.279 -370.696 498.151 -509.674 415.048C-567.279 380.68 -614.817 339.439 -651.047 292.61C-682.71 251.68 -705.193 207.246 -717.875 160.55C-730.869 112.835 -732.864 63.567 -723.463 21.7937C-714.816 -16.6093 -697.166 -46.0989 -674.994 -59.1364C-665.77 -64.5465 -653.885 -67.2072 -638.675 -67.2072C-593.354 -67.2072 -525.284 -43.7929 -439.121 -14.1703C-298.857 34.0774 -124.314 94.1209 62.9561 94.1209C250.182 94.1209 424.503 34.166 564.545 -14.0373C650.575 -43.6599 718.557 -67.0299 763.877 -67.0299C779.132 -67.0299 791.017 -64.3692 800.24 -58.959C822.502 -45.8772 840.24 -16.2545 848.976 22.3259C858.466 64.2765 856.515 113.766 843.477 161.614C830.794 208.221 808.356 252.567 776.782 293.409C740.641 340.148 693.191 381.212 635.719 415.535C497.096 498.328 304.549 540.279 63.5769 540.279ZM-638.675 -65.1674C-653.531 -65.1674 -665.06 -62.6397 -673.974 -57.4069C-695.659 -44.6799 -712.953 -15.6337 -721.467 22.1928C-730.78 63.6113 -728.784 112.568 -715.88 159.974C-696.678 230.483 -645.149 331.723 -508.655 413.318C-369.943 496.199 -177.44 538.239 63.5769 538.239C304.194 538.239 496.342 496.377 634.7 413.762C770.928 332.432 822.369 231.458 841.526 161.038C854.475 113.5 856.382 64.3652 846.98 22.7693C838.377 -15.2346 820.994 -44.3694 799.22 -57.1852C790.307 -62.418 778.733 -64.99 763.877 -64.99C718.911 -64.99 651.107 -41.6644 565.211 -12.1304C496.342 11.55 418.25 38.4232 333.24 59.6202C234.617 84.1875 146.237 96.1607 62.9561 96.1607C-20.3243 96.1607 -108.793 84.1875 -207.506 59.5759C-292.649 38.3788 -370.829 11.4613 -439.786 -12.2635C-525.772 -41.7974 -593.709 -65.1674 -638.675 -65.1674Z" fill="url(#paint5_radial_1067_6344)"/>
<path d="M63.6213 537.175C-180.721 537.175 -375.131 493.805 -514.198 408.263C-651.136 324.007 -702.443 218.687 -721.334 145.162C-734.505 93.8548 -736.013 40.7292 -725.503 -4.503C-715.924 -45.7884 -697.432 -76.6084 -674.772 -89.0694C-666.967 -93.3709 -657.3 -95.4551 -645.149 -95.4551C-602.578 -95.4551 -536.459 -69.4245 -452.735 -36.5203C-316.994 16.8714 -131.143 89.9968 63.0005 89.9968C257.1 89.9968 442.685 16.9601 578.204 -36.3872C661.795 -69.2914 727.825 -95.2777 770.352 -95.2777C782.503 -95.2777 792.214 -93.1935 800.019 -88.892C822.768 -76.3867 841.393 -45.3893 851.06 -3.92649C861.659 41.5274 860.24 94.8747 847.025 146.315C828.178 219.662 777.004 324.761 640.332 408.706C501.575 493.982 307.565 537.175 63.6213 537.175ZM-645.149 -93.4596C-656.945 -93.4596 -666.346 -91.4641 -673.796 -87.34C-718.319 -62.8614 -747.232 36.206 -719.339 144.674C-700.536 217.844 -649.495 322.676 -513.089 406.578C-374.377 491.942 -180.322 535.179 63.6656 535.179C307.254 535.179 500.91 492.075 639.312 407.065C775.452 323.43 826.36 218.864 845.118 145.872C873.056 37.0485 843.921 -62.4622 799.088 -87.0739C791.593 -91.198 782.192 -93.2379 770.396 -93.2379C728.224 -93.2379 662.327 -67.2959 578.958 -34.4804C443.306 18.9113 257.499 92.0367 63.0448 92.0367C-131.498 92.0367 -317.571 18.8226 -453.4 -34.6134C-536.991 -67.5176 -602.977 -93.4596 -645.149 -93.4596Z" fill="url(#paint6_radial_1067_6344)"/>
<path d="M63.7105 534.07C-183.914 534.07 -380.008 489.415 -519.252 401.389C-656.235 314.739 -706.877 205.738 -725.236 129.597C-753.395 12.836 -721.112 -95.1448 -674.55 -118.958C-667.986 -122.328 -660.049 -123.969 -650.337 -123.969C-610.293 -123.969 -546.081 -95.4552 -464.841 -59.4025C-326.705 1.92704 -137.484 85.9613 63.001 85.9613C263.442 85.9613 452.308 2.06008 590.222 -59.2251C671.374 -95.2778 735.453 -123.747 775.496 -123.747C785.252 -123.747 793.19 -122.107 799.753 -118.736C822.591 -107.029 842.547 -73.9477 853.145 -30.2676C864.985 18.6452 864.231 75.895 850.972 130.883C832.658 206.847 782.148 315.537 645.432 401.877C506.587 489.592 310.847 534.07 63.7105 534.07ZM-650.337 -122.062C-659.605 -122.062 -667.499 -120.466 -673.707 -117.273C-695.968 -105.876 -715.436 -73.4156 -725.768 -30.445C-737.387 17.9357 -736.589 74.6089 -723.418 129.154C-705.148 204.984 -654.727 313.453 -518.277 399.748C-379.387 487.596 -183.603 532.164 63.6662 532.164C310.448 532.164 505.833 487.818 644.368 400.281C780.552 314.295 830.839 206.093 849.065 130.44C862.236 75.7176 863.034 18.8226 851.238 -29.8242C840.773 -73.0165 821.172 -105.61 798.822 -117.051C792.525 -120.289 784.853 -121.841 775.408 -121.841C735.763 -121.841 671.862 -93.4596 590.932 -57.4956C452.885 3.83388 263.752 87.8239 62.9124 87.8239C-137.972 87.8239 -327.415 3.70086 -465.728 -57.673C-546.658 -93.637 -610.692 -122.062 -650.337 -122.062Z" fill="url(#paint7_radial_1067_6344)"/>
<path d="M63.7543 530.922C-187.373 530.922 -385.463 484.936 -524.929 394.294C-662.089 305.16 -711.977 192.479 -729.627 113.633C-742.709 55.3631 -742.709 -5.43433 -729.671 -57.4957C-718.097 -103.792 -697.388 -137.938 -674.284 -148.847C-668.83 -151.419 -662.178 -152.749 -654.462 -152.749C-616.724 -152.749 -554.419 -121.885 -475.573 -82.8168C-335.353 -13.3278 -143.294 81.8372 63.0892 81.8372C269.428 81.8372 461.132 -13.2391 601.086 -82.6394C679.799 -121.663 741.971 -152.528 779.753 -152.528C787.558 -152.528 794.077 -151.242 799.62 -148.625C822.812 -137.672 843.655 -103.349 855.406 -56.8305C868.621 -4.45874 868.666 56.5604 855.539 115.007C837.89 193.632 788.135 306.003 651.285 394.826C512.041 485.157 314.394 530.922 63.7543 530.922ZM-654.506 -150.931C-661.912 -150.931 -668.342 -149.69 -673.53 -147.206C-696.102 -136.519 -716.456 -102.817 -727.897 -57.0522C-740.846 -5.25694 -740.846 55.23 -727.809 113.234C-710.204 191.725 -660.537 303.963 -523.865 392.742C-384.665 483.206 -186.929 529.059 63.8431 529.059C314.128 529.059 511.42 483.384 650.265 393.318C786.627 304.85 836.161 192.922 853.721 114.653C866.759 56.4717 866.714 -4.28134 853.588 -56.3427C842.014 -102.329 821.526 -136.209 798.777 -146.94C793.5 -149.423 787.248 -150.665 779.709 -150.665C742.37 -150.665 680.375 -119.934 601.884 -80.9987C461.753 -11.5096 269.827 83.6553 63.0449 83.6553C-143.781 83.6553 -336.018 -11.6427 -476.415 -81.2204C-555.084 -120.111 -617.167 -150.931 -654.506 -150.931Z" fill="url(#paint8_radial_1067_6344)"/>
<path d="M63.8428 527.818C-191.142 527.818 -391.361 480.457 -531.271 387.021C-668.697 295.227 -717.654 178.732 -734.505 97.1363C-747.232 35.4964 -746.301 -28.9373 -731.844 -84.3246C-719.25 -132.617 -697.122 -168.802 -674.107 -178.736C-669.539 -180.687 -664.129 -181.707 -657.965 -181.707C-622.312 -181.707 -561.913 -148.581 -485.418 -106.675C-343.38 -28.8486 -148.881 77.8017 63.0446 77.8017C274.926 77.8017 469.026 -28.6712 610.797 -106.453C687.16 -148.359 747.469 -181.441 783.123 -181.441C789.287 -181.441 794.742 -180.421 799.309 -178.47C822.413 -168.492 844.719 -132.129 857.49 -83.5707C872.124 -27.873 873.188 36.8711 860.373 98.7327C843.566 180.062 794.742 296.247 657.582 387.687C518.071 480.679 318.296 527.818 63.8428 527.818ZM-657.965 -179.977C-663.863 -179.977 -669.096 -179.046 -673.442 -177.139C-695.969 -167.428 -717.698 -131.685 -730.159 -83.8811C-744.571 -28.7599 -745.503 35.452 -732.82 96.8259C-716.013 178.066 -667.233 294.118 -530.295 385.602C-390.696 478.816 -190.832 526.088 63.8428 526.088C317.941 526.088 517.406 479.038 656.606 386.223C793.278 295.138 841.925 179.397 858.643 98.3779C871.37 36.7824 870.35 -27.6513 855.761 -83.1273C843.122 -131.153 821.216 -167.073 798.555 -176.873C794.209 -178.736 788.977 -179.711 783.079 -179.711C747.869 -179.711 687.736 -146.718 611.596 -104.945C543.038 -67.3403 457.762 -20.556 364.593 15.9845C255.636 58.7333 156.968 79.5312 63.0002 79.5312C-31.0117 79.5312 -129.724 58.7333 -238.858 15.9401C-332.116 -20.6448 -417.614 -67.4734 -486.26 -105.122C-562.534 -146.94 -622.755 -179.977 -657.965 -179.977Z" fill="url(#paint9_radial_1067_6344)"/>
<path d="M63.8871 524.713C-195.355 524.713 -397.924 475.845 -538.277 379.483C-676.058 284.85 -723.951 164.408 -739.827 80.019C-752.021 15.1419 -749.982 -52.8394 -733.973 -111.419C-720.093 -162.328 -697.078 -199.578 -673.885 -208.58C-670.116 -210.043 -665.681 -210.797 -660.803 -210.797C-627.101 -210.797 -568.521 -175.543 -494.331 -130.931C-350.741 -44.5468 -154.114 73.7664 63.0446 73.7664C280.159 73.7664 476.387 -44.4138 619.667 -130.665C693.723 -175.277 752.214 -210.487 785.917 -210.487C790.839 -210.487 795.229 -209.733 799.043 -208.27C822.324 -199.179 845.561 -161.751 859.619 -110.577C875.805 -51.6421 877.978 16.6496 865.738 81.7485C849.907 165.916 802.147 286.003 664.633 380.237C524.679 476.067 322.553 524.713 63.8871 524.713ZM-660.803 -209.201C-665.504 -209.201 -669.717 -208.491 -673.309 -207.072C-696.013 -198.203 -718.629 -161.397 -732.377 -111.02C-748.296 -52.7063 -750.381 15.0532 -738.186 79.6643C-722.354 163.743 -674.639 283.786 -537.346 378.064C-397.304 474.249 -195.001 522.984 63.8871 522.984C322.198 522.984 524.014 474.47 663.657 378.729C800.684 284.806 848.266 165.162 864.053 81.3051C890.749 -60.5555 843.388 -189.29 798.422 -206.851C794.83 -208.27 790.618 -208.979 785.917 -208.979C752.658 -208.979 694.344 -173.858 620.509 -129.379C551.552 -87.8278 465.7 -36.1656 371.023 4.49905C260.026 52.1702 159.274 75.3184 63.0446 75.3184C-33.229 75.3184 -134.07 52.1259 -245.244 4.41032C-340.098 -36.2986 -426.084 -88.0495 -495.218 -129.601C-569.142 -174.035 -627.544 -209.201 -660.803 -209.201Z" fill="url(#paint10_radial_1067_6344)"/>
<path d="M63.9758 521.565C-199.879 521.565 -405.064 471.1 -545.949 371.545C-684.129 273.941 -730.736 149.331 -745.458 61.9706C-756.944 -6.01077 -753.574 -77.3623 -736.013 -138.914C-720.802 -192.261 -696.9 -230.442 -673.619 -238.513C-670.515 -239.577 -666.967 -240.154 -663.109 -240.154C-631.225 -240.154 -574.419 -202.904 -502.491 -155.676C-365.73 -65.9656 -159.037 69.6423 63.0889 69.6423C285.126 69.6423 491.375 -65.7882 627.826 -155.41C699.665 -202.593 756.383 -239.843 788.267 -239.843C792.17 -239.843 795.717 -239.311 798.821 -238.203C822.191 -230.087 846.315 -191.684 861.747 -138.027C879.53 -76.0763 882.989 -4.41435 871.503 63.833C856.825 150.883 810.351 275.094 672.437 372.299C531.907 471.366 327.209 521.565 63.9758 521.565ZM-663.154 -238.557C-666.834 -238.557 -670.205 -238.025 -673.131 -237.005C-718.186 -221.351 -768.828 -86.0096 -743.906 61.7488C-729.228 148.799 -682.799 272.965 -545.018 370.303C-404.399 469.637 -199.524 520.013 63.9758 520.013C326.855 520.013 531.242 469.903 671.462 371.057C808.932 274.163 855.229 150.395 869.862 63.6113C894.917 -84.8123 843.699 -220.864 798.245 -236.651C795.318 -237.67 791.948 -238.203 788.223 -238.203C756.782 -238.203 700.242 -201.041 628.624 -154.035C559.312 -108.537 473.105 -51.9081 376.965 -7.0307C264.106 45.6515 161.402 71.2831 63.0002 71.2831C-35.4019 71.2831 -138.239 45.6515 -251.319 -7.11942C-347.593 -52.0412 -434.022 -108.759 -503.466 -154.301C-575.084 -201.396 -631.757 -238.557 -663.154 -238.557Z" fill="url(#paint11_radial_1067_6344)"/>
<path d="M64.0196 518.461C-204.846 518.461 -412.87 466.266 -554.375 363.297C-692.999 262.411 -738.098 133.455 -751.534 43.0351C-762.044 -27.873 -757.299 -102.373 -738.098 -166.718C-721.69 -221.529 -696.325 -261.44 -673.442 -268.402C-670.959 -269.156 -668.165 -269.555 -665.15 -269.555C-634.951 -269.555 -582.579 -232.305 -510.074 -180.731C-372.205 -82.6394 -163.826 65.5624 63.0883 65.5624C289.914 65.5624 497.761 -82.462 635.32 -180.421C707.691 -231.95 759.974 -269.2 790.218 -269.2C793.233 -269.2 796.027 -268.801 798.555 -268.047C821.57 -261.04 847.202 -220.908 863.742 -165.787C883.21 -101.043 888.088 -26.1879 877.534 44.9862C864.141 135.096 819.175 263.608 680.818 364.05C539.756 466.532 332.264 518.461 64.0196 518.461ZM-665.105 -268.047C-667.988 -268.047 -670.604 -267.692 -672.999 -266.983C-695.438 -260.154 -720.404 -220.642 -736.59 -166.319C-755.747 -102.196 -760.492 -27.9617 -749.982 42.769C-736.59 132.879 -691.624 261.435 -553.444 362.011C-412.249 464.847 -204.491 516.953 64.0196 516.953C331.909 516.953 539.135 465.113 679.931 362.898C817.845 262.766 862.678 134.652 876.026 44.8089C886.58 -26.1879 881.702 -100.777 862.279 -165.343C845.871 -220.021 820.639 -259.754 798.067 -266.628C795.717 -267.337 793.056 -267.692 790.173 -267.692C760.418 -267.692 705.563 -228.624 636.162 -179.179C498.47 -81.1317 290.358 67.0702 63.0439 67.0702C-164.314 67.0702 -372.914 -81.3091 -510.961 -179.49C-580.45 -228.979 -635.394 -268.047 -665.105 -268.047Z" fill="url(#paint12_radial_1067_6344)"/>
<path d="M64.1096 515.357C-210.21 515.357 -421.338 461.255 -563.42 354.561C-702.443 250.172 -745.813 116.604 -757.741 22.991C-770.38 -76.4311 -752.021 -156.208 -739.915 -194.922C-722.177 -251.772 -695.968 -292.348 -673.175 -298.246C-671.224 -298.734 -669.051 -299 -666.745 -299C-638.098 -299 -587.323 -260.021 -517.08 -206.097C-378.235 -99.535 -168.348 61.5271 63.134 61.5271C294.528 61.5271 503.837 -99.3132 642.372 -205.786C712.526 -259.71 763.213 -298.645 791.904 -298.645C794.21 -298.645 796.383 -298.379 798.334 -297.891C821.305 -291.949 847.735 -251.151 865.739 -193.902C877.978 -154.922 896.648 -74.7016 883.921 25.164C872.036 118.466 828.755 251.547 690.043 355.448C548.316 461.521 337.72 515.357 64.1096 515.357ZM-666.789 -297.625C-668.962 -297.625 -671.002 -297.404 -672.865 -296.916C-695.215 -291.151 -720.979 -250.974 -738.629 -194.567C-750.691 -155.986 -769.005 -76.4311 -756.367 22.725C-744.482 116.072 -701.246 249.241 -562.622 353.319C-420.806 459.836 -209.944 513.849 64.0652 513.849C337.365 513.849 547.65 460.147 689.112 354.206C827.469 250.571 870.617 117.934 882.457 24.8536C895.14 -74.7016 876.515 -154.745 864.32 -193.591C846.493 -250.353 820.418 -290.796 797.935 -296.605C796.073 -297.093 794.033 -297.315 791.86 -297.315C763.656 -297.315 713.147 -258.468 643.214 -204.722C504.547 -98.1603 295.015 62.8575 63.134 62.8575C-168.836 62.8575 -378.944 -98.382 -517.967 -205.077C-588.032 -258.779 -638.63 -297.625 -666.789 -297.625Z" fill="url(#paint13_radial_1067_6344)"/>
</g>
</g>
<defs>
<radialGradient id="paint0_radial_1067_6344" cx="0" cy="0" r="1" gradientUnits="userSpaceOnUse" gradientTransform="translate(23.7103 130.719) rotate(-0.467595) scale(720.773 729.848)">
<stop stop-color="#036EB8"/>
<stop offset="1" stop-color="#171C61"/>
</radialGradient>
<radialGradient id="paint1_radial_1067_6344" cx="0" cy="0" r="1" gradientUnits="userSpaceOnUse" gradientTransform="translate(245.27 268.334) scale(570.17 747.666)">
<stop stop-color="#02A5D3"/>
<stop offset="1" stop-color="#0E729D"/>
</radialGradient>
<radialGradient id="paint2_radial_1067_6344" cx="0" cy="0" r="1" gradientUnits="userSpaceOnUse" gradientTransform="translate(181.369 258.55) scale(573.991 735.037)">
<stop stop-color="#02ACD6"/>
<stop offset="1" stop-color="#0D7DA5"/>
</radialGradient>
<radialGradient id="paint3_radial_1067_6344" cx="0" cy="0" r="1" gradientUnits="userSpaceOnUse" gradientTransform="translate(62.7867 267.197) scale(578.271 723.653)">
<stop stop-color="#02B3DA"/>
<stop offset="1" stop-color="#0C88AC"/>
</radialGradient>
<radialGradient id="paint4_radial_1067_6344" cx="0" cy="0" r="1" gradientUnits="userSpaceOnUse" gradientTransform="translate(62.8091 251.986) scale(583.044 713.291)">
<stop stop-color="#01BADD"/>
<stop offset="1" stop-color="#0B93B4"/>
</radialGradient>
<radialGradient id="paint5_radial_1067_6344" cx="0" cy="0" r="1" gradientUnits="userSpaceOnUse" gradientTransform="translate(62.8198 236.522) scale(588.162 703.879)">
<stop stop-color="#01C1E1"/>
<stop offset="1" stop-color="#0A9EBB"/>
</radialGradient>
<radialGradient id="paint6_radial_1067_6344" cx="0" cy="0" r="1" gradientUnits="userSpaceOnUse" gradientTransform="translate(62.8402 220.861) scale(593.871 695.481)">
<stop stop-color="#01C8E4"/>
<stop offset="1" stop-color="#09A9C3"/>
</radialGradient>
<radialGradient id="paint7_radial_1067_6344" cx="0" cy="0" r="1" gradientUnits="userSpaceOnUse" gradientTransform="translate(62.8836 205.043) scale(600.072 687.998)">
<stop stop-color="#01CFE7"/>
<stop offset="1" stop-color="#08B3CA"/>
</radialGradient>
<radialGradient id="paint8_radial_1067_6344" cx="0" cy="0" r="1" gradientUnits="userSpaceOnUse" gradientTransform="translate(62.8909 189.098) scale(606.802 681.494)">
<stop stop-color="#01D6EB"/>
<stop offset="1" stop-color="#07BED2"/>
</radialGradient>
<radialGradient id="paint9_radial_1067_6344" cx="0" cy="0" r="1" gradientUnits="userSpaceOnUse" gradientTransform="translate(62.9184 173.054) scale(614.048 675.743)">
<stop stop-color="#01DCEE"/>
<stop offset="1" stop-color="#05C9D9"/>
</radialGradient>
<radialGradient id="paint10_radial_1067_6344" cx="0" cy="0" r="1" gradientUnits="userSpaceOnUse" gradientTransform="translate(62.9496 156.923) scale(621.817 670.784)">
<stop stop-color="#01E3F1"/>
<stop offset="1" stop-color="#04D4E1"/>
</radialGradient>
<radialGradient id="paint11_radial_1067_6344" cx="0" cy="0" r="1" gradientUnits="userSpaceOnUse" gradientTransform="translate(62.983 140.722) scale(630.102 666.634)">
<stop stop-color="#00EAF5"/>
<stop offset="1" stop-color="#03DFE8"/>
</radialGradient>
<radialGradient id="paint12_radial_1067_6344" cx="0" cy="0" r="1" gradientUnits="userSpaceOnUse" gradientTransform="translate(63.0171 124.463) scale(638.924 663.128)">
<stop stop-color="#00F1F8"/>
<stop offset="1" stop-color="#02E9F0"/>
</radialGradient>
<radialGradient id="paint13_radial_1067_6344" cx="0" cy="0" r="1" gradientUnits="userSpaceOnUse" gradientTransform="translate(63.0563 108.152) scale(648.281 660.366)">
<stop stop-color="#00F8FC"/>
<stop offset="1" stop-color="#01F4F7"/>
</radialGradient>
<clipPath id="clip0_1067_6344">
<rect width="1920" height="1080" fill="white" transform="translate(-568 -480)"/>
</clipPath>
<clipPath id="clip1_1067_6344">
<rect width="1650" height="489" fill="white" transform="translate(-762 -287)"/>
</clipPath>
</defs>
</svg>
