<svg width="30" height="30" viewBox="0 0 30 30" fill="none" xmlns="http://www.w3.org/2000/svg">
<g filter="url(#filter0_d_514_12643)">
<path d="M9.31305 22.0935C9.23969 22.1618 9.14326 22.1998 9.04305 22.2C8.99111 22.2 8.93969 22.1896 8.89179 22.1695C8.84389 22.1494 8.80047 22.12 8.76405 22.083L7.91656 21.2355C7.84384 21.1633 7.80208 21.0656 7.80012 20.9632C7.79816 20.8607 7.83616 20.7615 7.90606 20.6865L15.5995 12.4893L17.5105 14.4002L9.31305 22.0935ZM20.0995 10.4749L19.525 9.90039C19.4626 9.83863 19.3815 9.79925 19.2944 9.7884C19.2073 9.77755 19.1191 9.79583 19.0435 9.84039L18.319 10.2694L19.729 11.6793L20.1564 10.9504C20.2007 10.8759 20.2191 10.7889 20.2087 10.7029C20.1984 10.6169 20.16 10.5368 20.0995 10.4749ZM17.836 14.3027C17.88 14.347 17.9324 14.3821 17.99 14.4061C18.0477 14.4301 18.1095 14.4424 18.172 14.4424C18.2344 14.4424 18.2962 14.4301 18.3539 14.4061C18.4116 14.3821 18.4639 14.347 18.508 14.3027L19.882 12.9288C19.9706 12.8394 20.0204 12.7187 20.0204 12.5928C20.0204 12.4669 19.9706 12.3462 19.882 12.2568L17.743 10.1179C17.6989 10.0736 17.6466 10.0385 17.5889 10.0145C17.5312 9.99056 17.4694 9.97822 17.407 9.97822C17.3445 9.97822 17.2827 9.99056 17.225 10.0145C17.1674 10.0385 17.115 10.0736 17.071 10.1179L15.697 11.4918C15.6528 11.5358 15.6177 11.588 15.5937 11.6455C15.5698 11.7031 15.5575 11.7648 15.5575 11.8271C15.5575 11.8894 15.5698 11.9511 15.5937 12.0086C15.6177 12.0662 15.6528 12.1184 15.697 12.1623L17.836 14.3027ZM20.0995 13.1403L18.7195 14.5142C18.6685 14.5658 18.6104 14.6097 18.547 14.6447L21.9429 18.0406C21.957 18.0545 21.9736 18.0655 21.9918 18.073C22.0101 18.0805 22.0297 18.0842 22.0494 18.0841C22.0711 18.084 22.0926 18.0794 22.1124 18.0706C22.1407 18.0577 22.1642 18.0363 22.1798 18.0095C22.1954 17.9826 22.2022 17.9516 22.1994 17.9206C22.0434 16.1293 21.33 14.4318 20.1595 13.0668C20.141 13.0925 20.121 13.1171 20.0995 13.1403ZM15.3565 11.4528C15.3905 11.3891 15.434 11.3309 15.4855 11.2803L16.8595 9.90039C16.8822 9.87692 16.9068 9.85535 16.933 9.83589C15.5674 8.66605 13.8691 7.95413 12.0775 7.80046C12.047 7.79804 12.0165 7.80502 11.9901 7.82044C11.9636 7.83587 11.9426 7.85902 11.9297 7.88677C11.9168 7.91453 11.9127 7.94556 11.9179 7.97571C11.9232 8.00586 11.9375 8.03369 11.959 8.05545L15.3565 11.4528Z" fill="#70C8FF"/>
</g>
<defs>
<filter id="filter0_d_514_12643" x="4.86374e-05" y="-1.23978e-05" width="30" height="30" filterUnits="userSpaceOnUse" color-interpolation-filters="sRGB">
<feFlood flood-opacity="0" result="BackgroundImageFix"/>
<feColorMatrix in="SourceAlpha" type="matrix" values="0 0 0 0 0 0 0 0 0 0 0 0 0 0 0 0 0 0 127 0" result="hardAlpha"/>
<feOffset/>
<feGaussianBlur stdDeviation="3.9"/>
<feComposite in2="hardAlpha" operator="out"/>
<feColorMatrix type="matrix" values="0 0 0 0 0.439216 0 0 0 0 0.784314 0 0 0 0 1 0 0 0 0.3 0"/>
<feBlend mode="normal" in2="BackgroundImageFix" result="effect1_dropShadow_514_12643"/>
<feBlend mode="normal" in="SourceGraphic" in2="effect1_dropShadow_514_12643" result="shape"/>
</filter>
</defs>
</svg>
